<?xml version="1.0" encoding="UTF-8" standalone="no"?><!DOCTYPE svg PUBLIC "-//W3C//DTD SVG 1.1//EN" "http://www.w3.org/Graphics/SVG/1.1/DTD/svg11.dtd"><svg width="100%" height="100%" viewBox="0 0 2000 2000" version="1.1" xmlns="http://www.w3.org/2000/svg" xmlns:xlink="http://www.w3.org/1999/xlink" xml:space="preserve" xmlns:serif="http://www.serif.com/" style="fill-rule:evenodd;clip-rule:evenodd;stroke-linecap:round;stroke-linejoin:round;stroke-miterlimit:1.5;"><rect id="Mesa-de-trabajo1" serif:id="Mesa de trabajo1" x="0" y="0" width="2000" height="2000" style="fill:none;"/><g id="Mesa-de-trabajo11" serif:id="Mesa de trabajo1"><ellipse cx="1000" cy="1000" rx="814.92" ry="809.11" style="fill:url(#_Radial1);"/><path d="M1296.195,444.156l-1.86,167.48l-82.853,-0.948c0,0 -45.988,-5.274 -74.077,15.47c-17.922,13.236 -29.554,36.379 -37.336,59.013c-8.677,25.236 -10.003,63.778 -11.156,92.405c-1.066,26.469 -1.711,80.547 -1.711,80.547l204.231,-0.892l-0.669,187.521l-198.133,0l3.719,504.456l-211.966,7.437l2.975,-511.893l-183.555,0l2.082,-187.224l185.861,0.521l2.008,-106.876c0,0 2.491,-75.862 7.437,-107.409c4.38,-27.939 18.298,-63.592 32.948,-89.013c5.051,-8.764 58.731,-76.607 118.007,-91.367c104.491,-26.019 244.046,-19.227 244.046,-19.227Z" style="fill:#fff;stroke:#fff;stroke-width:13.75px;"/></g><defs><radialGradient id="_Radial1" cx="0" cy="0" r="1" gradientUnits="userSpaceOnUse" gradientTransform="matrix(418.243675,809.109802,-803.340809,415.261577,1000,975.454726)"><stop offset="0" style="stop-color:#f70303;stop-opacity:1"/><stop offset="1" style="stop-color:#ffc201;stop-opacity:1"/></radialGradient></defs></svg>