<?xml version="1.0" encoding="UTF-8" standalone="no"?><!DOCTYPE svg PUBLIC "-//W3C//DTD SVG 1.1//EN" "http://www.w3.org/Graphics/SVG/1.1/DTD/svg11.dtd"><svg width="100%" height="100%" viewBox="0 0 2000 2000" version="1.1" xmlns="http://www.w3.org/2000/svg" xmlns:xlink="http://www.w3.org/1999/xlink" xml:space="preserve" xmlns:serif="http://www.serif.com/" style="fill-rule:evenodd;clip-rule:evenodd;stroke-linecap:round;stroke-linejoin:round;stroke-miterlimit:1.5;"><rect id="Mesa-de-trabajo3" serif:id="Mesa de trabajo3" x="0" y="0" width="2000" height="2000" style="fill:none;"/><g id="Mesa-de-trabajo31" serif:id="Mesa de trabajo3"><ellipse cx="1018.401" cy="1000" rx="814.92" ry="809.11" style="fill:url(#_Radial1);"/><path d="M1210.138,489.006c0,0 -14.584,123.73 65.352,193.342c91.804,79.947 169.364,52.13 169.364,52.13l-0.957,183.759c0,0 -83.919,7.052 -131.999,-12.301c-38.844,-15.635 -108.2,-77.671 -108.2,-77.671l8.157,353.093c0,0 -14.474,140.369 -43.222,182.055c-31.161,45.185 -74.765,88.308 -119.848,112.887c-43.376,23.648 -101.381,33.029 -150.649,34.585c-49.656,1.568 -108.411,-13.611 -163.773,-52.569c-45.577,-32.073 -78.489,-78.322 -115.404,-141.337c-33.374,-56.971 -31.966,-138.063 -16.487,-210.767c20.833,-97.848 91.918,-167.497 148.509,-199.65c82.746,-47.013 193.868,-33.15 193.868,-33.15l-0.787,179.26c0,0 -126.766,-24.243 -168.179,52.09c-22.364,41.223 -24.286,128.827 -2.574,163.658c21.713,34.831 58.15,63.667 125.784,66.496c39.368,1.646 74.108,-15.94 110.44,-56.996c27.141,-30.671 22.763,-151.99 22.763,-151.99l0,-634.825" style="fill:#fff;stroke:#fff;stroke-width:1px;"/></g><defs><radialGradient id="_Radial1" cx="0" cy="0" r="1" gradientUnits="userSpaceOnUse" gradientTransform="matrix(418.243675,809.109802,-803.340809,415.261577,951.553848,1000)"><stop offset="0" style="stop-color:#f70303;stop-opacity:1"/><stop offset="1" style="stop-color:#ffc201;stop-opacity:1"/></radialGradient></defs></svg>