<?xml version="1.0" encoding="UTF-8" standalone="no"?><!DOCTYPE svg PUBLIC "-//W3C//DTD SVG 1.1//EN" "http://www.w3.org/Graphics/SVG/1.1/DTD/svg11.dtd"><svg width="100%" height="100%" viewBox="0 0 2000 2000" version="1.1" xmlns="http://www.w3.org/2000/svg" xmlns:xlink="http://www.w3.org/1999/xlink" xml:space="preserve" xmlns:serif="http://www.serif.com/" style="fill-rule:evenodd;clip-rule:evenodd;stroke-linecap:round;stroke-linejoin:round;stroke-miterlimit:1.5;"><rect id="Mesa-de-trabajo4" serif:id="Mesa de trabajo4" x="0" y="0" width="2000" height="2000" style="fill:none;"/><g id="Mesa-de-trabajo41" serif:id="Mesa de trabajo4"><ellipse cx="1018.401" cy="1000" rx="814.92" ry="809.11" style="fill:url(#_Radial1);"/><path d="M532.322,583.463c0,0 48.347,76.668 81.347,101.298c42.709,31.876 97.134,74.715 157.055,104.235c63.575,31.32 112.007,34.452 151.792,40.255c39.798,5.805 67.954,8.855 67.954,8.855c0,0 -2.245,-102.624 16.66,-147.888c17.29,-41.397 49.286,-89.984 88.916,-112.286c35.103,-19.754 100.328,-29.076 148.864,-21.527c48.537,7.549 142.357,84.67 142.357,84.67c0,0 39.499,-19.151 60.057,-30.358c20.501,-11.175 63.292,-36.881 63.292,-36.881c0,0 -21.1,57.415 -33.426,75.815c-12.196,18.205 -51.244,50.054 -51.244,50.054c0,0 41.881,-2.519 59.42,-8.734c17.539,-6.216 45.814,-28.56 45.814,-28.56c0,0 -14.478,52.062 -36.294,76.159c-15.778,17.427 -58.904,39.865 -58.904,39.865c0,0 -2.38,104.719 -10.115,152.021c-7.266,44.432 -26.741,118.319 -45.815,157.971c-20.131,41.848 -49.93,84.439 -72.589,113.346c-17.959,22.91 -51.666,56.821 -71.697,77.944c-25.436,26.824 -62.148,52.19 -88.059,67.532c-26.378,15.619 -59.018,33.319 -82.109,42.839c-28.262,11.652 -72.911,31.49 -99.316,36.306c-30.989,5.652 -51.024,12.272 -91.036,16.842c-30.273,3.457 -80.299,3.904 -108.335,1.294c-30.89,-2.876 -80.687,-7.976 -108.289,-16.362c-36.394,-11.057 -74.473,-24.99 -102.934,-39.27c-15.539,-7.797 -86.869,-41.65 -86.869,-41.65c0,0 78.266,-6.382 113.049,-11.602c35.476,-5.325 75.869,-15.79 107.099,-25.585c32.301,-10.13 94.306,-52.062 94.306,-52.062c0,0 -58.021,-12.665 -84.787,-25.287c-29.65,-13.982 -66.342,-39.765 -85.976,-62.177c-19.501,-22.258 -41.352,-73.482 -41.352,-73.482c0,0 46.955,6.991 63.664,5.95c13.371,-0.833 44.922,-5.057 44.922,-5.057c0,0 -63.912,-23.222 -86.869,-39.865c-18.076,-13.104 -35.154,-28.653 -46.112,-44.52c-7.24,-10.484 -31.833,-57.266 -37.485,-74.479c-7.983,-24.313 -10.412,-71.399 -10.412,-71.399c0,0 37.749,36.363 55.632,39.27c21.643,3.518 48.492,-8.032 48.492,-8.032c0,0 -36.569,-24.502 -47.897,-39.27c-13.883,-18.098 -39.418,-67.631 -47.302,-88.356c-6.673,-17.543 -7.658,-62.208 -4.76,-96.686c2.644,-31.451 29.289,-91.146 29.289,-91.146Z" style="fill:#fff;stroke:#fff;stroke-width:1px;"/></g><defs><radialGradient id="_Radial1" cx="0" cy="0" r="1" gradientUnits="userSpaceOnUse" gradientTransform="matrix(418.243675,809.109802,-803.340809,415.261577,951.553848,1000)"><stop offset="0" style="stop-color:#f70303;stop-opacity:1"/><stop offset="1" style="stop-color:#ffc201;stop-opacity:1"/></radialGradient></defs></svg>